<svg xmlns="http://www.w3.org/2000/svg" width="244.578" height="175.547" viewBox="0.5 0.5 244.578 175.547" enable-background="new 0.5 0.5 244.578 175.547"><g><g fill="#77787B"><path d="M66.334 136.824h2.617l4.757 14.796H70.86l-.98-3.185h-4.568l-.963 3.185h-2.762l4.746-14.796zm2.71 8.915l-1.44-4.795-1.458 4.794h2.898zM77.224 136.9h2.514l5.08 8.577V136.9h2.686v14.72H85.16l-5.25-8.896v8.896h-2.685V136.9zM92.138 136.9h2.745v14.72h-2.745V136.9zM102.04 139.728H98.71V136.9h9.394v2.828h-3.333v11.892h-2.73v-11.892zM114.235 136.824h2.608l4.756 14.796h-2.84l-.987-3.185h-4.56l-.964 3.185h-2.77l4.755-14.796zm2.71 8.915l-1.44-4.795-1.458 4.794h2.9zM131.227 136.9h4.927c1.483 0 2.71.448 3.46 1.292.598.675.904 1.462.904 2.49v.075c0 1.724-.854 2.642-1.808 3.22 1.414.602 2.37 1.574 2.37 3.504v.112c0 2.642-1.91 4.027-4.79 4.027h-5.063V136.9zm6.58 4.345c0-1.086-.682-1.648-1.858-1.648h-2.046v3.315h1.908c1.21 0 1.996-.542 1.996-1.647v-.02zm-1.5 4.232h-2.403v3.463h2.454c1.244 0 2.012-.6 2.012-1.74v-.02c0-1.048-.7-1.703-2.063-1.703zM144.486 144.41v-.244c0-4.42 2.507-7.51 6-7.51 3.53 0 5.984 3.072 5.984 7.455v.262c0 4.4-2.506 7.51-6 7.51-3.53 0-5.984-3.07-5.984-7.47zm9.137-.056v-.15c0-2.902-1.312-4.738-3.153-4.738-1.857 0-3.17 1.816-3.17 4.72v.15c0 2.9 1.347 4.72 3.187 4.72 1.842-.002 3.136-1.8 3.136-4.702zM160.542 136.9h4.978c1.534 0 2.76.487 3.597 1.405.716.805 1.125 1.965 1.125 3.41v.09c0 2.23-1.006 3.635-2.472 4.347l2.83 5.468h-3.154l-2.438-4.832h-1.72v4.832h-2.746V136.9zm4.772 7.19c1.398 0 2.148-.88 2.148-2.208v-.02c0-1.462-.802-2.21-2.217-2.21h-1.96v4.44h2.03zM173.818 144.372v-.187c0-4.363 2.59-7.49 6.188-7.49 1.86 0 3.12.58 4.33 1.722l-1.62 2.378c-.697-.71-1.482-1.255-2.743-1.255-1.91 0-3.342 1.91-3.342 4.626v.17c0 3.014 1.5 4.72 3.444 4.72.785 0 1.483-.207 1.98-.6v-2.623h-2.405v-2.642h5.01v6.818c-1.21 1.012-2.743 1.836-4.722 1.836-3.545 0-6.12-2.865-6.12-7.472z"/></g><g fill="#77787B"><path d="M63.078 160.542h.946v14.733h-.946v-14.733zM72.452 160.542h.912l7.628 12.692v-12.692h.904v14.733h-.75l-7.782-12.978v12.978h-.912v-14.733zM89.316 173.44l.63-.824c1.194 1.236 2.345 1.893 3.896 1.893 1.78 0 3.01-1.238 3.01-2.83v-.056c0-1.386-.606-2.285-3.197-3.295-2.898-1.163-3.81-2.323-3.81-4.233v-.037c0-2.08 1.61-3.73 3.843-3.73 1.517 0 2.71.508 3.87 1.61l-.588.845c-1.04-1.032-2.122-1.48-3.315-1.48-1.74 0-2.855 1.2-2.855 2.678v.037c0 1.425.622 2.306 3.29 3.335 2.838 1.16 3.69 2.38 3.69 4.213v.04c0 2.228-1.662 3.875-3.955 3.875-1.72 0-3.128-.64-4.51-2.043zM108.116 161.51h-3.86v-.97h8.693v.97h-3.888v13.765h-.946V161.51zM120.42 160.542h.947v14.733h-.946v-14.733zM132.743 161.51h-3.852v-.97h8.694v.97h-3.887v13.765h-.955V161.51zM144.793 169.863v-9.32h.92v9.266c0 3.014 1.415 4.72 3.75 4.72 2.252 0 3.7-1.574 3.7-4.666v-9.32h.938v9.246c0 3.67-1.89 5.712-4.67 5.712-2.744-.002-4.637-2.043-4.637-5.64zM165.16 161.51h-3.87v-.97h8.695v.97h-3.887v13.765h-.938V161.51zM177.33 160.542h7.943v.97h-6.99v5.843h6.274v.975h-6.273v5.974h7.074v.973h-8.03v-14.735z"/></g><path fill="#C5C7C9" d="M136.017 117.578H59.81L98.377.5z"/><path fill="#575757" d="M161.735 59.043c-.053.006-.126.02-.182.027v-.054c.056.01.13.015.182.027 13.684-2.575 24.044-14.585 24.044-29.014 0-16.14-12.95-29.252-29.02-29.525H98.38l37.632 117.066h20.682l.066.016c16.068-.287 29.02-13.382 29.02-29.52 0-14.434-10.36-26.447-24.045-29.023"/><path d="M98.37.504V.52l.008-.016z"/><path fill="#C5C7C9" d="M98.377.5v.005h.002z"/><path fill="#929497" d="M117.085 58.712H79.2L98.373.51z"/><path fill="#C8C8C8" d="M162.93 14.16c0 6.703-5.432 12.137-12.128 12.137-6.7 0-12.133-5.434-12.133-12.136 0-6.702 5.432-12.13 12.132-12.13 6.696 0 12.127 5.428 12.127 12.13M162.93 44.156c0 6.7-5.432 12.134-12.128 12.134-6.7 0-12.133-5.434-12.133-12.134 0-6.695 5.432-12.134 12.132-12.134 6.696 0 12.127 5.44 12.127 12.134M162.93 74.15c0 6.703-5.432 12.14-12.128 12.14-6.7 0-12.133-5.437-12.133-12.14 0-6.693 5.432-12.13 12.132-12.13 6.696 0 12.127 5.437 12.127 12.13M163.17 103.906c0 6.696-5.44 12.128-12.136 12.128-6.697 0-12.135-5.432-12.135-12.128 0-6.704 5.437-12.133 12.134-12.133 6.696 0 12.136 5.43 12.136 12.133"/></g></svg>