<svg xmlns="http://www.w3.org/2000/svg" width="244.578" height="175.547" viewBox="0.5 0.5 244.578 175.547" enable-background="new 0.5 0.5 244.578 175.547"><g><path fill="#C5C4C4" d="M17.762 130.894h2.57v19.376h-2.57zM26.773 130.894h2.625l10.12 15.21h.055v-15.21h2.435v19.376h-2.624l-10.12-15.208h-.056v15.208h-2.435zM48.178 130.894H61.25v2.3h-10.5v6.008h9.093v2.3H50.75v8.768h-2.572zM.592 46.08h234.11v67.13H.59zM74.942 130.57c5.277 0 9.255 3.814 9.255 10.04 0 6.28-4.086 9.987-9.255 9.987-6.062 0-9.282-4.82-9.282-9.77 0-6.874 4.25-10.257 9.282-10.257m-.026 17.835c3.545 0 6.63-2.463 6.63-7.794 0-5.547-3.275-7.847-6.576-7.847-2.057 0-4.114.894-5.278 2.596-1.38 1.95-1.38 4.898-1.38 5.52 0 4.494 2.68 7.525 6.604 7.525"/><path fill="#C5C4C4" d="M89.448 130.894h8.578c1.354 0 2.6.027 3.87.515 1.977.758 3.03 2.76 3.03 4.79 0 3.11-2.137 4.79-5.437 5.224v.055c.973.457 2.136 1.162 3.65 3.515l3.384 5.278h-3.22l-2.543-4.005c-2.76-4.357-3.653-4.55-5.79-4.55h-2.95v8.553h-2.572v-19.376zm2.57 8.525h5.495c1.164 0 2.03 0 3.084-.46 1.002-.435 1.68-1.6 1.68-2.763 0-1.218-.677-2.19-1.49-2.625-.812-.433-1.65-.542-2.652-.542H92.02v6.39zM110.72 130.894h3.84l4.574 13.722c.65 1.922.76 2.3.894 2.868h.055c.324-1.055.406-1.27 1.028-3.11l4.627-13.48h3.412v19.376h-2.436v-16.21h-.056l-5.575 16.21h-2.3l-5.55-16.48h-.08v16.48h-2.435v-19.376zM140.46 130.894h2.762l7.9 19.378h-2.896l-2.272-5.9h-8.09l-2.14 5.9h-2.708l7.443-19.378zm-1.867 11.448h6.577l-2.03-5.385c-.488-1.272-.92-2.462-1.326-4.033h-.054c-.244 1.272-.566 2.49-1.027 3.71l-2.14 5.708zM157.69 133.195h-6.362v-2.3h15.347v2.3h-6.416v17.077h-2.57zM171.598 130.894h2.57v19.376h-2.57zM189.024 130.57c5.28 0 9.26 3.814 9.26 10.04 0 6.28-4.09 9.987-9.26 9.987-6.062 0-9.28-4.82-9.28-9.77 0-6.874 4.25-10.257 9.28-10.257M189 148.405c3.544 0 6.63-2.463 6.63-7.794 0-5.547-3.276-7.847-6.577-7.847-2.058 0-4.113.894-5.277 2.596-1.38 1.95-1.38 4.898-1.38 5.52 0 4.494 2.68 7.525 6.604 7.525"/><path fill="#C5C4C4" d="M203.505 130.894h2.626l10.12 15.21h.057v-15.21h2.433v19.376h-2.626l-10.12-15.208h-.056v15.208h-2.433zM20.82 163.366h-4.158v-2.373h11.143v2.373h-4.16v11.674H20.82zM37 160.993h10.418v2.373h-7.594v3.12h7.063v2.372h-7.063v3.81h7.847v2.372H37zM69.108 170.744c-.293 1.098-1.236 4.53-5.828 4.53-3.806 0-6.396-2.765-6.396-7.14 0-3.906 1.98-7.377 6.553-7.377.785 0 2.746.078 4.298 1.608.706.706 1.06 1.53 1.332 2.512l-2.805.667c-.353-1.53-1.512-2.354-2.963-2.354-3.493 0-3.493 3.846-3.493 4.747 0 1.315.158 2.63.746 3.532.51.784 1.452 1.37 2.708 1.37 1.884 0 2.747-1.43 3.102-2.96l2.746.864zM78.87 160.993h2.826v5.532h5.553v-5.532h2.824v14.047H87.25v-6.143h-5.554v6.143H78.87zM100.406 160.993h2.746l5.71 9.376h.04v-9.377h2.628v14.047h-2.845l-5.612-9.163h-.038v9.163h-2.63zM127.985 160.756c4.59 0 6.81 3.178 6.81 7.278 0 3.67-1.847 7.24-6.77 7.24-5.28 0-6.83-3.943-6.83-7.18 0-4.492 2.434-7.338 6.79-7.338m-3.16 10.32c.473.826 1.474 1.766 3.18 1.766 1.49 0 3.864-.804 3.864-4.866 0-1.59-.412-4.786-3.865-4.786-3.218 0-3.884 2.765-3.884 4.826 0 1.59.37 2.492.706 3.06"/><path fill="#C5C4C4" d="M144.4 160.993h2.825v11.674h7.063v2.373h-9.89zM168.945 160.756c4.59 0 6.808 3.178 6.808 7.278 0 3.67-1.846 7.24-6.77 7.24-5.277 0-6.828-3.943-6.828-7.18 0-4.492 2.437-7.338 6.79-7.338m-3.158 10.32c.47.826 1.47 1.766 3.177 1.766 1.494 0 3.867-.804 3.867-4.866 0-1.59-.412-4.786-3.866-4.786-3.216 0-3.883 2.765-3.883 4.826 0 1.59.374 2.492.707 3.06"/><path fill="#C5C4C4" d="M191.74 167.504h6.1v5.593c-.823.805-3.16 2.177-6.003 2.177-5.062 0-7.123-3.61-7.123-7.298 0-3.432 1.885-7.22 6.965-7.22 2.276 0 5.22.667 5.982 4.12l-2.824.53c-.55-1.94-2.296-2.218-3.138-2.218-1.196 0-2.473.374-3.3 1.57-.605.902-.763 2.02-.763 3.1 0 2.08.725 4.98 4.02 4.98 1.647 0 2.964-.92 3.316-1.195v-1.764h-3.236l.002-2.376zM211.587 169.134l-5.14-8.14h3.316l3.296 5.55 3.254-5.55h3.258l-5.16 8.16v5.886h-2.825zM25.57 11.414c0-2.045 0-3.85-2.02-3.85-1.035 0-1.974.553-2.383 1.467-.335.724-.36 2.094-.36 3.106v5.653H17.51V5.326h3.08v1.827h.048c1.227-1.684 2.792-2.117 4.066-2.117.554 0 1.83.096 2.863.914 1.324 1.012 1.275 2.864 1.3 4.09v7.75H25.57v-6.376zM31.417 8.575c.554-1.997 1.684-3.536 5.39-3.536 5.245 0 5.27 2.452 5.27 4.69 0 .768-.05 4.138-.025 4.835.073 1.636.242 2.19.722 3.225h-3.248c-.073-.17-.145-.338-.242-.7l-.19-.672c-.652.65-1.854 1.66-3.876 1.66-2.502 0-4.138-1.515-4.138-3.682 0-3.055 2.815-3.61 4.548-3.947 1.852-.337 2.55-.53 3.2-.793V9.32c0-.818 0-1.755-2.262-1.755-1.612 0-1.95.938-2.165 1.563l-2.983-.553zm7.41 3.224c-.336.12-.626.215-1.396.384-.167.023-.986.19-1.13.24-.6.12-1.924.457-1.924 1.612 0 .698.553 1.708 1.828 1.708.77 0 1.42-.337 1.925-.77.697-.603.697-1.397.697-2.527V11.8zM50.998 7.95H48.76v5.028c0 1.78 0 2.357.915 2.357.433 0 .82-.12 1.226-.29l.098-.022.29 2.55c-1.083.457-2.262.504-2.6.504-1.01 0-2.31-.337-2.79-1.275-.41-.77-.458-1.516-.458-3.417V7.95h-1.516V5.325h1.516v-2.48L48.76.9v4.426H51V7.95zM52.9.562h3.295v3.056H52.9V.562zm0 4.764h3.295V17.79H52.9V5.326zM64.833 5.038c4.332 0 6.45 3.32 6.45 6.472 0 3.44-2.408 6.568-6.425 6.568-1.974 0-6.45-.914-6.45-6.688 0-2.96 1.998-6.352 6.425-6.352m0 10.346c1.493 0 3.056-1.084 3.056-3.85 0-2.503-1.373-3.803-3.057-3.803-1.588 0-3.03 1.205-3.03 3.828 0 2.646 1.467 3.826 3.03 3.826"/><path fill="#C5C4C4" d="M81.53 11.414c0-2.045 0-3.85-2.02-3.85-1.035 0-1.974.553-2.383 1.467-.335.724-.36 2.094-.36 3.106v5.653H73.47V5.326h3.08v1.827h.048c1.227-1.684 2.79-2.117 4.066-2.117.553 0 1.83.096 2.862.914 1.324 1.012 1.275 2.864 1.3 4.09v7.75H81.53v-6.376zM87.378 8.575c.553-1.997 1.684-3.536 5.39-3.536 5.245 0 5.27 2.452 5.27 4.69 0 .768-.05 4.138-.025 4.835.073 1.636.24 2.19.722 3.225h-3.248c-.07-.17-.145-.338-.24-.7l-.194-.672c-.65.65-1.852 1.66-3.874 1.66-2.503 0-4.14-1.515-4.14-3.682 0-3.055 2.816-3.61 4.55-3.947 1.852-.337 2.55-.53 3.2-.793V9.32c0-.818 0-1.755-2.262-1.755-1.612 0-1.95.938-2.166 1.563l-2.984-.553zm7.41 3.224c-.337.12-.625.215-1.395.384-.168.023-.987.19-1.13.24-.602.12-1.925.457-1.925 1.612 0 .698.554 1.708 1.828 1.708.77 0 1.42-.337 1.925-.77.7-.603.7-1.397.7-2.527V11.8zM100.827.562h3.297V17.79h-3.297zM121.135 9.585c-.17-.866-.65-1.973-2.262-1.973-2.72 0-2.72 2.936-2.72 3.705 0 2.647.867 4.067 2.77 4.067 1.923 0 2.236-1.66 2.38-2.382l3.246.554c-.697 3.08-2.646 4.523-5.798 4.523-5.148 0-5.99-4.428-5.99-6.52 0-2.89 1.323-6.522 6.063-6.522 3.97 0 5.077 2.31 5.557 3.97l-3.247.577zM137.016 14.373c-.266.77-1.3 3.706-5.438 3.706-1.082 0-3.968-.146-5.293-2.984-.556-1.202-.745-2.43-.745-3.464 0-3.368 1.778-6.592 5.726-6.592 4.69 0 5.99 3.776 5.918 7.457h-8.275c.046 1.493.84 3.057 2.718 3.057 1.538 0 1.925-1.155 2.094-1.733l3.294.553zm-3.105-3.9c-.07-2.717-1.947-2.91-2.454-2.91-1.562 0-2.502 1.275-2.477 2.91h4.93zM147.435 11.414c0-2.045 0-3.85-2.022-3.85-1.033 0-1.972.553-2.383 1.467-.337.724-.36 2.094-.36 3.106v5.653h-3.297V5.326h3.082v1.827h.048c1.225-1.684 2.79-2.117 4.065-2.117.555 0 1.828.096 2.864.914 1.32 1.012 1.274 2.864 1.298 4.09v7.75h-3.295v-6.376zM159.463 7.95h-2.236v5.028c0 1.78 0 2.357.914 2.357.433 0 .816-.12 1.228-.29l.097-.022.29 2.55c-1.084.457-2.264.504-2.6.504-1.01 0-2.31-.337-2.79-1.275-.41-.77-.457-1.516-.457-3.417V7.95h-1.517V5.325h1.518v-2.48L157.228.9v4.426h2.236V7.95zM171.95 14.373c-.263.77-1.3 3.706-5.437 3.706-1.082 0-3.97-.146-5.293-2.984-.553-1.202-.745-2.43-.745-3.464 0-3.368 1.78-6.592 5.726-6.592 4.692 0 5.993 3.776 5.92 7.457h-8.275c.047 1.493.84 3.057 2.718 3.057 1.54 0 1.926-1.155 2.094-1.733l3.294.553zm-3.103-3.9c-.07-2.717-1.948-2.91-2.455-2.91-1.562 0-2.5 1.275-2.477 2.91h4.932zM174.285 17.79V5.326h3.055v1.757h.048c.697-1.203 1.396-2.045 2.814-2.045.72 0 1.59.264 2.168.6l-1.036 2.888c-.265-.168-.916-.53-1.54-.53-2.143 0-2.214 2.48-2.214 5.945v3.85h-3.295zM190.044 5.326v-.962c0-1.468 0-4.09 3.85-4.09.648 0 1.71.097 2.743.41l-.434 2.31c-.6-.145-1.3-.192-1.516-.192-1.347 0-1.347.914-1.347 1.635v.892h2.476v2.62h-2.476v9.84h-3.298V7.95h-1.83V5.325h1.832zM202.486 5.038c4.33 0 6.448 3.32 6.448 6.472 0 3.44-2.405 6.568-6.425 6.568-1.973 0-6.448-.914-6.448-6.688 0-2.96 2-6.352 6.424-6.352m0 10.346c1.49 0 3.055-1.084 3.055-3.85 0-2.503-1.37-3.803-3.054-3.803-1.588 0-3.03 1.205-3.03 3.828 0 2.646 1.468 3.826 3.03 3.826"/><path fill="#333" d="M198.44 74.24c4.564 6.77 8.058 11.71 10.48 14.817 2.426 3.108 5.077 6.154 7.955 9.14 5.614-5.978 8.42-10.848 8.42-14.61 0-1.694-.695-3.035-2.084-4.02-1.39-.986-3.47-1.48-6.247-1.48h-2.832v-3.135h29.7v3.135h-2.243c-1.924 0-3.508.248-4.754.74-1.248.493-2.396 1.255-3.446 2.288-1.05 1.032-2.323 2.934-3.818 5.707-3.078 5.58-6.373 10.262-9.882 14.05 4.912 4.37 9.195 6.55 12.854 6.55 2.22 0 4.076-.76 5.565-2.28 1.487-1.52 2.482-4.146 2.985-7.874h3.315c0 5.785-1.434 10.175-4.298 13.18-2.867 3-6.484 4.5-10.858 4.5-2.456 0-4.956-.55-7.5-1.635-2.543-1.088-5.61-3.06-9.2-5.92-4.102 2.86-7.757 4.834-10.973 5.92s-6.66 1.634-10.333 1.634c-6.677 0-12.198-1.865-16.562-5.598-4.363-3.73-6.544-8.328-6.544-13.784 0-4.196 1.39-7.973 4.17-11.333 2.78-3.36 7.78-6.692 15.004-9.992-3.37-6-5.053-10.998-5.043-14.994 0-4.334 1.818-8.023 5.463-11.068 3.64-3.043 8.108-4.565 13.404-4.565 5.045 0 9.024 1.122 11.94 3.367 2.912 2.245 4.37 5.23 4.37 8.948 0 3.538-1.4 6.773-4.205 9.71-2.8 2.937-7.734 5.805-14.8 8.6m-9.264 3.602c-7.488 3.603-11.233 7.93-11.233 12.978 0 3.878 1.738 7.95 5.222 12.215 3.48 4.264 7.82 6.396 13.016 6.396 4.415 0 8.92-1.557 13.516-4.67-3.42-3.57-6.488-7.102-9.203-10.598-2.72-3.493-6.49-8.933-11.32-16.322m7.254-7.154c5.15-1.94 8.69-4.01 10.623-6.212 1.932-2.202 2.9-4.845 2.9-7.926 0-2.895-.88-5.19-2.638-6.884-1.76-1.695-4.003-2.543-6.737-2.543-2.698 0-4.932.81-6.707 2.43-1.775 1.618-2.662 3.764-2.662 6.444-.04 3.91 1.7 8.808 5.223 14.692"/><path d="M17.19 68.913h11.534v1.94h-1.51c-.748 0-1.28.12-1.597.35-.317.233-.476.545-.476.933 0 .41.094.846.28 1.31l5.89 14.828 5.13-14.11c-.695-1.493-1.312-2.418-1.853-2.774-.542-.357-1.494-.536-2.854-.536v-1.94H44.36v1.94H43.3c-.97 0-1.637.126-2 .377-.366.25-.547.6-.547 1.046 0 .335.085.724.253 1.168l5.968 14.83 4.723-13.18c.317-.874.477-1.618.477-2.232 0-.612-.242-1.087-.728-1.422-.486-.334-1.4-.53-2.744-.587v-1.94h10.206v1.94c-1.27.206-2.23.6-2.883 1.187-.653.586-1.203 1.482-1.65 2.69l-7.592 21.183H45.12l-7.336-18.27-6.644 18.27h-1.713L20.1 72.763c-.298-.73-.634-1.22-1.006-1.473-.373-.253-1.007-.4-1.904-.437v-1.94zM71.37 68.162c3.527 0 6.49 1.273 8.89 3.816 2.396 2.542 3.597 5.893 3.597 10.047 0 2.87-.538 5.315-1.61 7.337-1.074 2.02-2.605 3.617-4.59 4.792-1.99 1.174-4.13 1.762-6.428 1.762-3.397 0-6.277-1.286-8.64-3.856-2.36-2.57-3.54-5.907-3.54-10.006 0-4.12 1.185-7.463 3.556-10.034s5.29-3.858 8.763-3.858m0 2.004c-2.096 0-3.816.945-5.163 2.833-1.346 1.887-2.02 4.868-2.02 8.94 0 4.15.668 7.18 2.005 9.095 1.337 1.916 3.062 2.875 5.177 2.875 2.188 0 3.96-.96 5.315-2.875 1.357-1.915 2.035-5.048 2.035-9.4 0-4.037-.67-6.956-2.007-8.76-1.337-1.805-3.12-2.71-5.344-2.71"/><path d="M86.05 68.977l7.582-.5c.41 1.942.683 3.793.814 5.548 1.417-2.035 2.835-3.468 4.252-4.3 1.417-.833 2.974-1.25 4.67-1.25 1.81 0 3.302.473 4.477 1.418 1.174.944 2.08 2.48 2.714 4.61 1.248-2.017 2.638-3.526 4.167-4.528 1.528-1 3.198-1.5 5.006-1.5 2.387 0 4.177.71 5.37 2.124 1.528 1.863 2.294 4.266 2.294 7.207V90.8c0 .78.194 1.312.584 1.593.518.43 1.288.64 2.308.64h1.307v2.132H118.44v-2.13h1.31c1.115 0 1.896-.187 2.342-.56.448-.374.67-.935.67-1.68V77.773c0-1.94-.475-3.442-1.423-4.507-.95-1.063-2.197-1.596-3.74-1.596-1.174 0-2.233.314-3.182.94-.95.625-1.694 1.517-2.233 2.677-.8 1.662-1.2 3.07-1.2 4.226v11.282c0 .765.205 1.33.617 1.693.412.364 1.048.545 1.91.545h1.795v2.13H101.9v-2.13h1.505c.947 0 1.654-.187 2.12-.56.464-.373.698-.848.698-1.427V78.968c0-2.552-.45-4.408-1.35-5.565-.9-1.154-2.113-1.732-3.635-1.732-1.967 0-3.48.673-4.538 2.015-1.503 1.9-2.255 4.12-2.255 6.653v10.46c0 .802.177 1.352.528 1.647.5.393 1.277.588 2.335.588h1.334v2.13h-13.28v-2.13h1.993c.748 0 1.322-.187 1.726-.557.402-.372.605-.847.605-1.425V73.93c0-.947-.243-1.653-.728-2.118-.485-.466-1.454-.763-2.906-.894v-1.94zM156.718 82.196h-18.732c.095 3.99.84 6.805 2.236 8.444 1.602 1.848 3.644 2.767 6.123 2.767 3.65 0 6.586-2.065 8.805-6.2l1.818.777c-2.722 5.287-6.656 7.93-11.8 7.93-3.508 0-6.455-1.268-8.853-3.8-2.395-2.533-3.592-5.776-3.592-9.727 0-4.25 1.176-7.68 3.532-10.298 2.356-2.62 5.255-3.93 8.7-3.93 2.532 0 4.72.652 6.565 1.954 1.844 1.302 3.23 3.17 4.16 5.61.654 1.71 1 3.867 1.038 6.472m-18.733-2.006h11.346c.672 0 1.19-.227 1.565-.68.372-.455.56-1.228.56-2.32 0-2.04-.64-3.77-1.915-5.197-1.275-1.425-2.78-2.14-4.513-2.14-1.938 0-3.58.862-4.933 2.586-1.35 1.72-2.052 4.305-2.11 7.75"/><path d="M157.596 68.913l8.707-.5c.368 1.64.64 3.56.814 5.76 1.174-1.9 2.554-3.325 4.146-4.273 1.593-.95 3.394-1.423 5.405-1.423 1.73 0 3.184.34 4.356 1.02 1.173.68 2.113 1.756 2.82 3.227.708 1.472 1.06 3.12 1.06 4.945v12.74c0 .948.216 1.625.646 2.024.428.4 1.143.6 2.148.6h1.845v2.13h-13.78v-2.13h1.3c1.223 0 2.07-.193 2.553-.585.48-.393.72-.98.72-1.763V79.48c0-2.44-.37-4.246-1.117-5.42-1.042-1.676-2.62-2.515-4.74-2.515-2.1 0-3.853.847-5.255 2.542-1.403 1.696-2.105 3.902-2.105 6.622v9.697c0 .95.217 1.626.655 2.025.437.4 1.158.6 2.166.6h1.813v2.13H157.91v-2.13h1.802c.904 0 1.594-.186 2.065-.558.47-.374.706-.84.706-1.4v-16.93c0-1.118-.305-1.967-.915-2.545-.605-.58-1.48-.87-2.622-.87h-1.35v-1.817z"/><path fill="#C5C4C4" d="M211.1 17.79V5.326h3.055v1.757h.05c.697-1.203 1.395-2.045 2.814-2.045.722 0 1.587.264 2.164.6l-1.033 2.888c-.265-.168-.914-.53-1.54-.53-2.14 0-2.213 2.48-2.213 5.945v3.85H211.1z"/></g></svg>