<svg xmlns="http://www.w3.org/2000/svg" width="244.578" height="175.547" viewBox="0.5 0.5 244.578 175.547" enable-background="new 0.5 0.5 244.578 175.547"><g fill="#C4C3C3"><path d="M30.017 88.495c-2.64 3.995-3.96 9.52-3.96 16.575 0 3.43.33 6.478.994 9.17.658 2.69 1.602 4.956 2.83 6.813 1.23 1.857 2.744 3.267 4.54 4.253 1.794.99 3.854 1.47 6.166 1.47 3.955 0 7.936-1.83 11.938-5.5l-1.323 23.03c-5.098 1.89-9.66 2.837-13.7 2.837-9.496 0-17.492-3.37-23.98-10.1-7.27-7.542-10.9-18.222-10.9-32.03 0-12.933 3.417-23.304 10.232-31.133 6.826-7.79 15.94-11.688 27.346-11.688 3.703 0 7.482.67 11.336 2.004V87.67c-3.416-3.415-6.918-5.12-10.508-5.12-4.7-.002-8.365 1.982-11.01 5.945zm85.053 46.953c-5.864 7.79-13.51 11.695-22.938 11.695-8.362 0-15.532-3-21.514-8.982-7.515-7.575-11.28-18.94-11.28-34.107 0-14.524 3.93-25.62 11.776-33.304 5.83-5.71 12.743-8.558 20.74-8.558 9.794 0 17.59 3.86 23.383 11.58s8.693 18.12 8.693 31.187c.002 12.496-2.95 22.67-8.86 30.488zm-23.102-52.9c-2.714 0-4.883 1.978-6.49 5.935-1.582 3.666-2.37 9.06-2.37 16.178 0 7.018.744 12.466 2.228 16.32 1.487 3.86 3.55 5.796 6.194 5.796 2.71 0 4.803-1.904 6.266-5.717 1.542-3.812 2.312-9.11 2.312-15.907 0-15.076-2.716-22.605-8.14-22.605zm89.947 54.802c-5.982 6.525-14.89 9.793-26.736 9.793h-21.456v-84.95h19.81c11.33 0 20.154 3.044 26.454 9.133 8.287 7.958 12.436 19.087 12.436 33.396 0 14.084-3.5 24.958-10.51 32.628zm-16.057-47.865c-2.102-3.964-4.918-5.945-8.48-5.945h-.715v43.236c8.217-.398 12.324-7.477 12.324-21.234 0-6.784-1.037-12.132-3.13-16.057zm79 37.29v20.368h-42.64v-84.95h42.64v20.355h-19.693v10.84h17.658v20.353h-17.658v13.036h19.692zM24.93 57.643L18.414 39.69l-6.79 17.966L.856 30.7H5.01l6.596 16.935 6.89-18.168 6.6 18.168L32.102 30.7h4.146L24.93 57.644zm34.633-4.97c-2.61 2.55-5.765 3.822-9.462 3.822-3.272 0-6.21-1.13-8.81-3.396-2.87-2.51-4.302-5.79-4.302-9.852 0-3.562 1.31-6.623 3.92-9.186 2.608-2.56 5.733-3.835 9.387-3.835 3.61 0 6.708 1.288 9.288 3.87 2.59 2.58 3.888 5.683 3.888 9.304 0 3.642-1.298 6.737-3.907 9.272zM56.91 36.57c-1.793-1.835-4.018-2.753-6.664-2.753-2.632 0-4.86.918-6.677 2.753-1.817 1.818-2.724 4.058-2.724 6.726 0 2.797.94 5.098 2.823 6.9 1.87 1.802 4.028 2.704 6.478 2.704 2.66 0 4.9-.917 6.726-2.752 1.83-1.857 2.74-4.12 2.74-6.79 0-2.698-.902-4.96-2.705-6.788zm34.394 19.463L88.856 40.74 81.354 57.2l-7.282-16.475-2.726 15.308h-3.953L72.73 28.8l8.697 19.686L90.433 28.8l4.79 27.233h-3.92zm23.267-3.594v3.593h-13.984V30.7h13.985v3.59h-10.16v6.086h9.863v3.6h-9.864v8.462h10.16zm8.85-14.146v17.74h-3.834V28.975l18.483 19.33V30.7h3.813v26.876L123.42 38.294zm56.074 19.35l-6.513-17.955-6.792 17.966-10.77-26.955h4.157l6.59 16.935 6.897-18.168 6.595 18.168L186.66 30.7h4.16l-11.326 26.943zm29.896-1.61V44.2h-10.926v11.832h-3.822V30.7h3.822v9.912h10.926v-9.91h3.826v25.33h-3.826zm31.214-3.362c-2.62 2.55-5.77 3.823-9.47 3.823-3.28 0-6.208-1.13-8.806-3.396-2.873-2.51-4.31-5.79-4.31-9.852 0-3.562 1.306-6.623 3.927-9.186 2.596-2.56 5.728-3.835 9.39-3.835 3.6 0 6.696 1.288 9.282 3.87 2.587 2.58 3.89 5.683 3.89 9.304 0 3.642-1.305 6.737-3.903 9.272zm-2.666-16.102c-1.786-1.835-4.005-2.753-6.653-2.753-2.643 0-4.866.918-6.685 2.753-1.817 1.818-2.728 4.058-2.728 6.726 0 2.797.947 5.098 2.833 6.9 1.866 1.802 4.033 2.704 6.476 2.704 2.655 0 4.897-.917 6.73-2.752 1.827-1.857 2.743-4.12 2.743-6.79 0-2.698-.91-4.96-2.715-6.788z"/></g></svg>