<svg xmlns="http://www.w3.org/2000/svg" width="126.251" height="123.426" viewBox="0 0 126.251 123.426"><g fill="#fff"><path d="M62.073 43.81c0-7.977-4.755-20.38-13.923-20.38-2.883 0-5.97 1.438-7.744 3.656-1.88 2.33-2.428 5.31-2.428 8.2 0 7.417 4.308 19.71 13.818 19.71 2.762 0 5.737-1.32 7.515-3.096 2.543-2.556 2.763-6.093 2.763-8.09zM122.31 0H3.94C1.763 0 0 1.762 0 3.937v115.546c0 2.18 1.763 3.942 3.94 3.942h118.37c2.18 0 3.94-1.764 3.94-3.942V3.938c0-2.176-1.764-3.938-3.94-3.938zM46.486 104.182c-16.03 0-23.762-7.64-23.762-15.842 0-3.985 1.985-9.63 8.508-13.51 6.85-4.21 16.14-4.76 21.118-5.104-1.554-1.993-3.317-4.097-3.317-7.527 0-1.882.554-2.99 1.1-4.32-1.217.112-2.427.22-3.533.22-11.713 0-18.346-8.756-18.346-17.395 0-5.09 2.32-10.742 7.07-14.842 6.306-5.205 14.918-6.62 20.894-6.62h21.778l-7.188 4.518h-6.85c2.54 2.104 7.84 6.534 7.84 14.957 0 8.19-4.636 12.078-9.275 15.73-1.44 1.437-3.1 2.988-3.1 5.43 0 2.43 1.66 3.76 2.872 4.765l3.983 3.094c4.865 4.098 9.285 7.863 9.283 15.515 0 10.414-10.063 20.932-29.073 20.932zm58.817-43.823H94.19v11.143h-5.472V60.36H77.662v-5.53H88.72V43.753h5.47V54.83h11.112v5.53zM56.102 72.945c-.88-.11-1.433-.11-2.538-.11-.996 0-6.967.217-11.607 1.778-2.433.88-9.504 3.54-9.504 11.404 0 7.866 7.626 13.523 19.452 13.523 10.614 0 16.253-5.108 16.253-11.967 0-5.663-3.65-8.646-12.056-14.628z"/></g></svg>