<svg xmlns="http://www.w3.org/2000/svg" xmlns:xlink="http://www.w3.org/1999/xlink" width="1500.49" height="274.93" viewBox="0 0 1500.49 274.93"><path fill="#4285F4" d="M43.588 39.765h35.48v115.187h-35.48z"/><path fill="#00BFA5" d="M149.732 39.765h35.69v115.187h-35.69z"/><path fill="#1CE9B6" d="M149.94 154.95h35.48l-53.065-97.736h-35.48z"/><path fill="#4FC3F7" d="M79.067 154.95h-35.48l53.07-97.736h35.475z"/><defs><path id="a" d="M0 0h1500.49v194.72H0z"/></defs><clipPath id="b"><use xlink:href="#a" overflow="visible"/></clipPath><path clip-path="url(#b)" fill="#4285F4" d="M22.73 172.43V22.694h38.833V0H8.953C4.026 0 0 4.032 0 8.957v175.868c0 4.924 4.028 9.895 8.952 9.895h52.61v-22.29H22.73z"/><path clip-path="url(#b)" fill="#00BFA5" d="M206.283 172.43V22.694h-38.83V0h52.605c4.92 0 8.952 4.032 8.952 8.957v175.868c0 4.924-4.03 9.895-8.952 9.895h-52.605v-22.29h38.83z"/><path clip-path="url(#b)" fill="#666" d="M334.47 125.983l2.857 14.483.39.064 3.57-14.547 20.003-67.798h7.34l20 67.798 3.443 14.612.39-.065 3.05-14.547 17.08-67.798h7.924L396.23 152.74h-7.34L367.656 80.2l-2.468-9.937h-.39l-2.402 9.937-21.432 72.54h-7.402l-24.29-94.555h7.99zM428.57 116.567c0-10.348 2.835-18.834 8.507-25.457 5.67-6.625 13.183-9.937 22.534-9.937 9.396 0 16.93 3.312 22.6 9.937 5.673 6.623 8.508 15.11 8.508 25.457v2.143c0 10.39-2.825 18.888-8.474 25.49-5.65 6.602-13.15 9.902-22.502 9.902-9.44 0-16.994-3.3-22.665-9.903-5.672-6.603-8.507-15.1-8.507-25.49v-2.143zm7.793 2.11c0 8.13 2.056 14.964 6.17 20.5 4.11 5.535 9.848 8.303 17.21 8.303 7.228 0 12.91-2.768 17.046-8.304 4.133-5.535 6.2-12.368 6.2-20.5v-2.14c0-8-2.078-14.79-6.234-20.37-4.157-5.58-9.87-8.37-17.145-8.37-7.272 0-12.966 2.79-17.078 8.37-4.113 5.58-6.17 12.37-6.17 20.37v2.14zM513.514 82.473l.714 11.624c2.25-4.112 5.25-7.294 8.994-9.546 3.744-2.25 8.216-3.376 13.41-3.376 5.368 0 9.86 1.3 13.476 3.897 3.614 2.598 6.202 6.56 7.76 11.884 2.122-4.935 5.14-8.798 9.06-11.59 3.918-2.793 8.69-4.19 14.32-4.19 7.49 0 13.27 2.49 17.338 7.468 4.07 4.98 6.106 12.687 6.106 23.12v40.978H596.9v-41.19c0-8.676-1.528-14.804-4.58-18.382-3.052-3.58-7.306-5.37-12.76-5.37-6.02 0-10.674 1.89-13.964 5.662-3.29 3.775-5.324 8.612-6.103 14.512 0 .304.01.737.032 1.302.02.563.032.976.032 1.235v42.23H551.7v-41.19c0-8.502-1.55-14.586-4.644-18.252-3.096-3.665-7.35-5.5-12.76-5.5-5.5 0-9.862 1.4-13.087 4.2s-5.49 6.56-6.788 11.288v49.455h-7.857V82.474h6.95zM651.188 154.103c-8.79 0-16.096-3.246-21.918-9.74-5.824-6.494-8.735-14.72-8.735-24.678v-3.572c0-10.045 2.89-18.38 8.67-25 5.78-6.627 12.782-9.938 21.008-9.938 8.615 0 15.392 2.728 20.327 8.183 4.936 5.455 7.403 12.728 7.403 21.82v6.624h-49.615v1.88c0 7.905 2.1 14.515 6.3 19.828 4.198 5.313 9.72 7.97 16.56 7.97 4.848 0 8.983-.67 12.404-2.013 3.42-1.342 6.342-3.27 8.767-5.78l3.31 5.325c-2.64 2.783-5.985 4.993-10.033 6.633-4.05 1.638-8.864 2.458-14.45 2.458m-.974-66.305c-5.758 0-10.585 2.19-14.482 6.573-3.895 4.384-6.167 9.877-6.818 16.483l.13.323h41.173v-1.943c0-6.087-1.797-11.182-5.39-15.284-3.594-4.1-8.464-6.152-14.612-6.152"/><path clip-path="url(#b)" fill="#666" d="M700.22 82.473l.714 12.274c2.25-4.33 5.292-7.673 9.124-10.034 3.83-2.36 8.366-3.54 13.604-3.54 7.62 0 13.42 2.33 17.405 6.983 3.983 4.654 5.974 11.916 5.974 21.787v42.797h-7.792v-42.816c0-8.07-1.504-13.774-4.512-17.114-3.01-3.34-7.285-5.01-12.827-5.01-5.456 0-9.904 1.443-13.346 4.327-3.442 2.885-5.92 6.713-7.436 11.485v49.13h-7.793V82.47h6.884zM865.236 64.81H832.7v87.93h-7.793V64.81H792.37v-6.625h72.866zM898.42 154.103c-8.79 0-16.095-3.246-21.917-9.74-5.823-6.494-8.734-14.72-8.734-24.678v-3.572c0-10.045 2.89-18.38 8.67-25 5.777-6.627 12.78-9.938 21.007-9.938 8.615 0 15.392 2.728 20.327 8.183s7.404 12.728 7.404 21.82v6.624h-49.616v1.88c0 7.905 2.1 14.515 6.3 19.828s9.72 7.97 16.56 7.97c4.85 0 8.983-.67 12.404-2.013 3.42-1.342 6.342-3.27 8.767-5.78l3.312 5.325c-2.64 2.783-5.985 4.993-10.033 6.633-4.05 1.638-8.866 2.458-14.45 2.458m-.976-66.305c-5.758 0-10.585 2.19-14.482 6.573-3.896 4.384-6.168 9.877-6.818 16.483l.13.323h41.173v-1.943c0-6.087-1.798-11.182-5.39-15.284-3.596-4.1-8.466-6.152-14.614-6.152M966.61 147.48c5.15 0 9.697-1.468 13.637-4.4s5.91-7.008 5.91-12.226h6.884l.13.39c.217 6.493-2.38 11.928-7.792 16.3s-11.668 6.56-18.768 6.56c-9.57 0-16.96-3.28-22.178-9.84-5.218-6.56-7.826-14.99-7.826-25.294v-2.728c0-10.217 2.62-18.617 7.858-25.198 5.238-6.58 12.6-9.87 22.08-9.87 7.706 0 14.125 2.272 19.255 6.82 5.13 4.544 7.607 10.518 7.435 17.92l-.13.39h-6.948c0-5.626-1.895-10.118-5.683-13.473-3.79-3.354-8.432-5.033-13.93-5.033-7.533 0-13.108 2.694-16.723 8.077-3.614 5.384-5.422 12.164-5.422 20.337v2.726c0 8.303 1.797 15.136 5.39 20.5 3.595 5.362 9.2 8.043 16.822 8.043"/><path clip-path="url(#b)" fill="#666" d="M1017.264 94.487c2.338-4.2 5.455-7.47 9.352-9.807s8.442-3.506 13.638-3.506c7.403 0 13.086 2.295 17.047 6.883 3.963 4.59 5.942 11.712 5.942 21.366v43.316h-7.793v-43.534c0-7.635-1.505-13.112-4.514-16.43-3.01-3.318-7.154-4.978-12.437-4.978-5.325 0-9.774 1.4-13.346 4.198-3.572 2.798-6.203 6.517-7.89 11.158v49.585h-7.794V51.43h7.793v43.057zM1090.063 82.473l.714 11.624c2.25-4.112 5.25-7.294 8.994-9.546 3.745-2.25 8.217-3.376 13.412-3.376 5.367 0 9.86 1.3 13.475 3.897 3.614 2.598 6.202 6.56 7.76 11.884 2.122-4.935 5.142-8.798 9.06-11.59 3.92-2.793 8.69-4.19 14.32-4.19 7.49 0 13.27 2.49 17.34 7.468 4.068 4.98 6.104 12.687 6.104 23.12v40.978h-7.792v-41.19c0-8.676-1.526-14.804-4.58-18.382-3.05-3.58-7.305-5.37-12.76-5.37-6.02 0-10.673 1.89-13.963 5.662-3.29 3.775-5.324 8.612-6.104 14.512 0 .304.01.737.033 1.302.02.563.032.976.032 1.235v42.23h-7.857v-41.19c0-8.502-1.55-14.586-4.644-18.252-3.096-3.665-7.35-5.5-12.76-5.5-5.5 0-9.862 1.4-13.087 4.2-3.226 2.797-5.488 6.56-6.787 11.288v49.455h-7.857V82.474h6.95zM1245.857 152.74c-.52-2.382-.888-4.438-1.104-6.17-.217-1.73-.325-3.485-.325-5.26-2.598 3.68-6.062 6.73-10.39 9.155-4.33 2.425-9.2 3.637-14.612 3.637-6.84 0-12.155-1.818-15.944-5.455s-5.68-8.507-5.68-14.61c0-6.495 2.8-11.69 8.408-15.587 5.605-3.896 13.172-5.845 22.697-5.845h15.52v-8.702c0-5.02-1.613-8.96-4.837-11.82-3.226-2.856-7.74-4.285-13.54-4.285-5.412 0-9.903 1.363-13.476 4.092-3.57 2.726-5.357 6.062-5.357 10l-7.144-.064-.13-.39c-.26-5.238 2.132-9.925 7.176-14.06 5.042-4.134 11.462-6.202 19.255-6.202 7.75 0 13.983 1.97 18.703 5.91 4.718 3.94 7.078 9.59 7.078 16.95v34.55c0 2.467.14 4.87.422 7.207.28 2.34.747 4.656 1.396 6.95h-8.117zm-25.52-5.52c5.584 0 10.52-1.31 14.806-3.93s7.38-5.963 9.286-10.033V118.58h-15.652c-7.057 0-12.695 1.505-16.916 4.514-4.222 3.01-6.332 6.743-6.332 11.202 0 3.81 1.31 6.916 3.93 9.32 2.617 2.402 6.243 3.604 10.876 3.604"/><path clip-path="url(#b)" fill="#666" d="M1289.692 118.45h-8.96v34.29h-7.794V51.43h7.793v60.396h8.183l26.108-29.354h9.092l.13.326-28.12 31.666 31.042 37.95-.194.325h-8.898zM1363.27 154.103c-8.788 0-16.095-3.246-21.917-9.74-5.824-6.494-8.734-14.72-8.734-24.678v-3.572c0-10.045 2.89-18.38 8.67-25 5.778-6.627 12.78-9.938 21.007-9.938 8.615 0 15.392 2.728 20.327 8.183s7.403 12.728 7.403 21.82v6.624h-49.615v1.88c0 7.905 2.1 14.515 6.3 19.828s9.72 7.97 16.56 7.97c4.85 0 8.983-.67 12.404-2.013 3.42-1.342 6.342-3.27 8.768-5.78l3.31 5.325c-2.64 2.783-5.984 4.993-10.032 6.633-4.05 1.638-8.866 2.458-14.45 2.458m-.975-66.305c-5.758 0-10.585 2.19-14.48 6.573-3.897 4.384-6.17 9.877-6.82 16.483l.13.323h41.173v-1.943c0-6.087-1.797-11.182-5.39-15.284-3.595-4.1-8.467-6.152-14.613-6.152"/><path clip-path="url(#b)" fill="#666" d="M1437.76 89.16l-5.78-.388c-4.894 0-8.91 1.374-12.047 4.123-3.14 2.75-5.38 6.528-6.722 11.333v48.512h-7.792V82.472h6.82l.973 11.69v.78c2.035-4.33 4.763-7.707 8.184-10.132 3.42-2.424 7.49-3.636 12.21-3.636.994 0 1.957.076 2.89.227.93.154 1.698.316 2.305.488l-1.04 7.273zM1492.764 134.846c0-3.282-1.354-6.155-4.06-8.617-2.705-2.462-7.587-4.47-14.644-6.025-8.4-1.818-14.602-4.222-18.605-7.21-4.005-2.986-6.007-7.207-6.007-12.663 0-5.367 2.262-9.903 6.786-13.604 4.523-3.702 10.508-5.553 17.956-5.553 7.923 0 14.2 1.96 18.833 5.877 4.632 3.92 6.84 8.822 6.624 14.71l-.13.39h-7.208c0-3.854-1.636-7.21-4.904-10.067-3.27-2.857-7.675-4.286-13.216-4.286-5.672 0-9.926 1.217-12.76 3.65-2.837 2.434-4.255 5.288-4.255 8.56 0 3.23 1.223 5.903 3.67 8.015 2.443 2.11 7.326 3.963 14.644 5.556 8.354 1.87 14.61 4.422 18.767 7.657 4.155 3.236 6.234 7.634 6.234 13.192 0 5.863-2.37 10.608-7.11 14.234-4.74 3.627-11.007 5.44-18.8 5.44-8.53 0-15.23-2.035-20.1-6.105-4.87-4.07-7.176-8.92-6.916-14.547l.13-.392h7.144c.303 5.045 2.37 8.708 6.2 10.992 3.833 2.285 8.347 3.427 13.542 3.427 5.628 0 10.065-1.232 13.313-3.693 3.247-2.462 4.87-5.442 4.87-8.94"/><path fill="#4B4B4C" d="M346.725 249.157l-17.415-43.45h-9.064v53.23h7.02v-20.71l-.708-22.3 17.458 43.01h5.375l17.466-43.1-.665 22.39v20.71h7.02v-53.23h-9.106l-17.38 43.45zm54.743-30.482c-3.506 0-6.578.807-9.327 2.494-2.71 1.687-4.84 4.084-6.354 7.192-1.513 3.106-2.27 6.576-2.27 10.407v.52c0 6.135 1.647 11.03 4.98 14.763 3.33 3.73 7.683 5.598 13.02 5.598 3.555 0 6.71-.81 9.462-2.5 2.752-1.765 4.844-4.16 6.312-7.188 1.504-3.03 2.22-6.492 2.22-10.392v-.45c0-6.216-1.648-11.116-4.98-14.848-3.33-3.732-7.684-5.597-13.062-5.597zm8.264 31.46c-2.04 2.67-4.754 4.005-8.214 4.005-3.383 0-6.133-1.332-8.138-3.996-2.043-2.665-3.063-6.14-3.063-10.573 0-4.897 1.02-8.715 3.066-11.38 2.044-2.665 4.752-3.997 8.086-3.997 3.382 0 6.133 1.336 8.18 4.08 2.083 2.67 3.106 6.218 3.106 10.497 0 4.88-1.02 8.62-3.024 11.364zm25.69-26.207l-.093-4.54h-6.578v39.55h6.755v-28.08c1.597-3.74 4.617-5.686 9.022-5.686 1.198 0 2.308.088 3.33.265v-6.306c-.668-.278-1.687-.455-2.98-.455-4.085 0-7.238 1.775-9.46 5.253zm34.296-5.253c-3.153 0-6.083.886-8.754 2.584-2.707 1.77-4.797 4.17-6.306 7.277-1.472 3.032-2.227 6.578-2.227 10.49v1.244c0 5.872 1.652 10.582 5.026 14.13 3.375 3.477 7.73 5.25 13.104 5.25 6.623 0 11.598-2.497 14.89-7.64l-4.13-3.204c-1.245 1.6-2.672 2.927-4.318 3.904-1.683.977-3.687 1.43-6.084 1.43-3.374 0-6.132-1.164-8.31-3.564-2.178-2.4-3.33-5.59-3.42-9.498h26.793v-2.765c0-6.31-1.42-11.19-4.267-14.57-2.88-3.38-6.88-5.068-11.995-5.068zm9.508 16.886H459.41c.443-3.633 1.56-6.393 3.424-8.353 1.864-2.034 4.134-3.015 6.885-3.015 2.803 0 5.065.972 6.71 2.843 1.647 1.87 2.58 4.535 2.796 7.996v.53zm69.63 14.047l-9.38-30.22h-5.46l-9.2 29.598L517 219.39h-6.713l11.467 39.547h5.505l9.335-29.953 9.638 29.953h5.47l11.508-39.548h-6.754l-7.6 30.217zm38.165-30.932c-3.504 0-6.613.807-9.325 2.494-2.71 1.687-4.842 4.084-6.355 7.192-1.513 3.106-2.27 6.576-2.27 10.407v.52c0 6.135 1.648 11.03 4.98 14.763 3.33 3.73 7.647 5.598 13.02 5.598 3.556 0 6.71-.81 9.462-2.5 2.752-1.765 4.844-4.16 6.312-7.188 1.468-3.03 2.22-6.492 2.22-10.392v-.45c0-6.216-1.684-11.116-4.98-14.848-3.33-3.732-7.685-5.597-13.063-5.597zm8.23 31.46c-2.005 2.67-4.755 4.005-8.18 4.005-3.418 0-6.132-1.332-8.174-3.996-2.042-2.665-3.027-6.14-3.027-10.573 0-4.897 1.02-8.715 3.066-11.38 2.044-2.665 4.715-3.997 8.085-3.997 3.385 0 6.136 1.336 8.183 4.08 2.083 2.67 3.106 6.218 3.106 10.497 0 4.88-1.02 8.62-3.06 11.364zm61.225-31.46c-2.886 0-5.375.542-7.468 1.7-2.127 1.23-3.82 2.746-5.15 4.618-1.998-4.188-5.736-6.318-11.288-6.318-4.93 0-8.84 1.69-11.73 5.075l-.18-4.36h-6.398v39.547h6.756v-28.88c1.64-3.74 4.666-5.686 9.107-5.686 5.64 0 8.443 2.924 8.443 8.622v25.944h6.798v-26.222c.267-2.57 1.24-4.608 2.888-6.044 1.647-1.51 3.734-2.3 6.262-2.3 3.027 0 5.203.71 6.492 2.128 1.29 1.418 1.95 3.548 1.95 6.315v26.122h6.757V232.45c-.136-9.232-4.573-13.775-13.24-13.775zm39.766 0c-3.153 0-6.082.886-8.755 2.584-2.705 1.77-4.795 4.17-6.304 7.277-1.47 3.032-2.226 6.578-2.226 10.49v1.244c0 5.872 1.652 10.582 5.026 14.13 3.375 3.477 7.73 5.25 13.104 5.25 6.623 0 11.6-2.497 14.892-7.64l-4.097-3.204c-1.245 1.6-2.71 2.927-4.354 3.904-1.684.977-3.688 1.43-6.086 1.43-3.373 0-6.133-1.164-8.31-3.564-2.18-2.4-3.33-5.59-3.422-9.498h26.796v-2.765c0-6.31-1.423-11.19-4.268-14.57s-6.842-5.068-11.995-5.068zm9.51 16.886h-19.817c.443-3.633 1.56-6.393 3.422-8.353 1.864-2.034 4.137-3.015 6.887-3.015 2.84 0 5.065.972 6.71 2.843 1.684 1.87 2.58 4.535 2.797 7.996v.53zm33.773-16.885c-4.85 0-8.802 1.872-11.823 5.69l-.224-4.977h-6.398v39.548h6.756v-28.173c.933-1.946 2.22-3.46 3.87-4.62 1.68-1.156 3.594-1.772 5.774-1.772 2.71 0 4.708.707 5.994 2.046 1.287 1.412 1.915 3.467 1.955 6.312v26.21h6.756v-26.13c-.085-9.422-4.305-14.133-12.66-14.133zm43.458 40.262h6.757V219.39h-6.756v39.547zm3.463-53.945c-1.33 0-2.31.358-2.94 1.15-.705.72-1.057 1.688-1.057 2.76 0 1.07.352 2.038 1.057 2.752.63.715 1.61 1.072 2.94 1.072 1.33 0 2.31-.357 3.016-1.072.633-.714.984-1.68.984-2.752 0-1.072-.352-2.04-.985-2.76-.706-.79-1.688-1.15-3.017-1.15zm33.33 13.683c-4.81 0-8.803 1.872-11.824 5.69l-.187-4.977h-6.396v39.548h6.754v-28.173c.897-1.946 2.223-3.46 3.832-4.62 1.683-1.156 3.634-1.772 5.776-1.772 2.747 0 4.708.707 6.03 2.046 1.25 1.412 1.88 3.467 1.956 6.312v26.21h6.756v-26.13c-.084-9.422-4.342-14.133-12.696-14.133zm53.05 34.045c-.627-.798-.978-1.96-.978-3.557V224.63h7.378v-5.24h-7.378v-9.595h-6.754v9.594h-7.2v5.24h7.2v24.527c0 3.375.795 5.955 2.31 7.74 1.515 1.86 3.82 2.754 6.84 2.754 1.69 0 3.386-.188 5.163-.713v-5.426c-1.34.272-2.405.443-3.203.443-1.596 0-2.673-.434-3.376-1.233zm30.655-34.045c-3.19 0-6.047.886-8.79 2.584-2.672 1.77-4.8 4.17-6.234 7.277-1.51 3.032-2.3 6.578-2.3 10.49v1.244c0 5.872 1.688 10.582 5.063 14.13 3.375 3.477 7.73 5.25 13.067 5.25 6.66 0 11.636-2.497 14.928-7.64l-4.096-3.204c-1.244 1.6-2.743 2.927-4.353 3.904-1.685.977-3.723 1.43-6.122 1.43-3.3 0-6.13-1.164-8.27-3.564-2.217-2.4-3.37-5.59-3.46-9.498h26.83v-2.765c0-6.31-1.42-11.19-4.267-14.57s-6.843-5.068-11.995-5.068zm9.506 16.886h-19.817c.444-3.633 1.598-6.393 3.39-8.353 1.863-2.034 4.17-3.015 6.92-3.015 2.84 0 5.066.972 6.676 2.843 1.683 1.87 2.65 4.535 2.832 7.996v.53zm23.19-7.64c1.873-2.484 4.54-3.728 7.926-3.728 2.573 0 4.71.878 6.48 2.484 1.772 1.682 2.746 3.735 2.928 6.31h6.398c-.182-4.26-1.773-7.724-4.708-10.315-2.933-2.663-6.657-3.995-11.1-3.995-3.563 0-6.676.805-9.338 2.488-2.662 1.61-4.704 3.996-6.124 6.94-1.347 3.018-2.058 6.476-2.058 10.303v1.15c0 6.225 1.524 11.117 4.72 14.752 3.197 3.562 7.465 5.343 12.88 5.343 2.67 0 5.24-.62 7.636-1.786 2.402-1.24 4.278-2.845 5.704-4.89 1.495-2.043 2.22-4.254 2.388-6.483h-6.398c-.182 2.145-1.234 4.003-3.018 5.507-1.78 1.43-3.91 2.143-6.312 2.143-3.468 0-6.21-1.242-8.08-3.652-1.867-2.483-2.764-6.03-2.764-10.566v-1.25c0-4.706.9-8.265 2.84-10.75zm50.493-9.245c-4.8 0-8.634 1.788-11.65 5.512v-21.412h-6.757v56.162h6.756v-28.173c.896-1.946 2.222-3.46 3.83-4.62 1.684-1.156 3.633-1.772 5.777-1.772 2.745 0 4.708.706 6.03 2.045 1.25 1.412 1.88 3.467 1.956 6.312v26.208h6.755v-26.13c-.085-9.422-4.27-14.133-12.698-14.133zm42.026 0c-4.886 0-8.805 1.872-11.826 5.69l-.256-4.977h-6.397v39.548h6.756v-28.173c.964-1.946 2.22-3.46 3.903-4.62 1.68-1.156 3.56-1.772 5.77-1.772 2.678 0 4.712.707 5.964 2.046 1.32 1.412 1.95 3.467 1.955 6.312v26.21h6.754v-26.13c-.085-9.422-4.27-14.133-12.623-14.133zm39.73 0c-3.47 0-6.578.807-9.257 2.494-2.746 1.687-4.875 4.084-6.39 7.192-1.513 3.106-2.305 6.576-2.305 10.407v.52c0 6.135 1.686 11.03 4.98 14.763 3.364 3.73 7.722 5.598 13.058 5.598 3.557 0 6.746-.81 9.426-2.5 2.753-1.765 4.882-4.16 6.387-7.188 1.43-3.03 2.146-6.492 2.146-10.392v-.45c0-6.216-1.61-11.116-4.98-14.848-3.295-3.732-7.65-5.597-13.063-5.597zm8.265 31.46c-2.042 2.67-4.72 4.005-8.18 4.005-3.383 0-6.132-1.332-8.174-3.996-2.042-2.665-3.027-6.14-3.027-10.573 0-4.897.985-8.715 3.03-11.38 2.045-2.665 4.788-3.997 8.086-3.997 3.456 0 6.134 1.336 8.255 4.08 2.043 2.67 3.033 6.218 3.033 10.497 0 4.88-.985 8.62-3.022 11.364zm19.63 8.802h6.758v-56.162h-6.758v56.162zm34.485-40.262c-3.47 0-6.58.807-9.324 2.494-2.677 1.687-4.808 4.084-6.323 7.192-1.51 3.106-2.305 6.576-2.305 10.407v.52c0 6.135 1.686 11.03 4.98 14.763 3.365 3.73 7.72 5.598 13.06 5.598 3.554 0 6.67-.81 9.425-2.5 2.748-1.765 4.877-4.16 6.312-7.188 1.502-3.03 2.22-6.492 2.22-10.392v-.45c0-6.216-1.612-11.116-4.98-14.848-3.3-3.732-7.65-5.597-13.067-5.597zm8.265 31.46c-2.04 2.67-4.72 4.005-8.178 4.005-3.458 0-6.137-1.332-8.176-3.996-2.043-2.665-3.027-6.14-3.027-10.573 0-4.897.987-8.715 3.03-11.38 2.045-2.665 4.715-3.997 8.085-3.997 3.384 0 6.137 1.336 8.183 4.08 2.116 2.67 3.106 6.218 3.106 10.497.002 4.88-.985 8.62-3.022 11.364zm44.338-26.385c-2.742-3.384-6.48-5.075-11.285-5.075-4.71 0-8.52 1.785-11.366 5.43s-4.268 8.533-4.268 14.744c0 6.403 1.424 11.472 4.27 15.204 2.917 3.73 6.653 5.598 11.276 5.598 4.7 0 8.355-1.52 11.1-4.632v3.382c0 3.374-.965 5.956-2.824 7.82-1.79 1.863-4.365 2.76-7.65 2.76-4.184 0-7.736-1.78-10.66-5.34l-3.477 4.01c1.425 2.13 3.48 3.814 6.228 5.055 2.752 1.166 5.514 1.787 8.355 1.787 5.148 0 9.234-1.433 12.258-4.367 3.024-3.01 4.54-7.015 4.54-12.162V219.39h-6.143l-.35 4.36zm-.273 24.35c-2.033 3.903-5.145 5.854-9.41 5.854-3.29 0-5.86-1.322-7.722-3.82-1.79-2.572-2.682-6.045-2.682-10.563 0-4.983.896-8.8 2.762-11.3 1.86-2.575 4.438-3.898 7.725-3.898 4.102 0 7.21 1.944 9.328 5.685V248.1zm39.903-28.71l-9.235 29.675-9.862-29.676h-7.38l14.124 39.103-1.506 4.003c-.877 2.483-1.94 4.173-3.193 5.142-1.25.896-3.03 1.343-5.336 1.343l-1.857-.098v5.432l2.566.523 1.25.093c5.338 0 9.246-3.29 11.73-9.866l15.91-45.675h-7.21z"/></svg>