<svg xmlns="http://www.w3.org/2000/svg" width="640" height="83.883" viewBox="0 0 640 83.883"><g fill="#fff"><path d="M170.695 66.102h-2.406l-9.415-32.842c-.836-2.614-1.36-4.916-1.778-6.59-.314 1.78-.732 3.66-1.36 5.857-.627 2.197-3.66 13.493-9.413 33.68h-2.51L132.1 23.533h3.138l7.426 27.508c.313 1.15.627 2.197.836 3.034.21.94.523 1.882.732 2.614.21.837.418 1.674.523 2.3.21.838.313 1.57.418 2.303.523-2.614 1.464-6.59 2.928-12.027l7.218-25.834h3.242l8.577 29.703c1.046 3.45 1.778 6.275 2.196 8.263.21-1.465.627-2.824 1.046-4.498.417-1.568 3.346-12.76 8.994-33.47h2.928l-11.607 42.674zM212.01 50.204c0 5.23-1.256 9.204-3.767 12.133-2.51 2.823-5.96 4.393-10.46 4.393-2.72 0-5.23-.732-7.32-2.092-2.197-1.36-3.766-3.242-4.917-5.857-1.15-2.51-1.778-5.437-1.778-8.68 0-5.23 1.255-9.204 3.766-12.028s5.96-4.288 10.354-4.288 7.74 1.464 10.25 4.393c2.615 2.823 3.87 6.902 3.87 12.027zm-25.104 0c0 4.393.94 7.74 2.824 10.25 1.987 2.405 4.602 3.66 8.158 3.66s6.275-1.255 8.158-3.66c1.883-2.406 2.824-5.857 2.824-10.25 0-4.394-.94-7.74-2.824-10.25-1.883-2.51-4.707-3.557-8.158-3.557s-6.275 1.256-8.054 3.557c-1.986 2.405-2.928 5.857-2.928 10.25zM257.402 66.102v-20.71c0-3.032-.628-5.333-1.883-6.692-1.256-1.465-3.034-2.197-5.544-2.197-3.242 0-5.648.94-7.217 2.615-1.57 1.883-2.302 4.602-2.302 8.472v18.617h-2.928v-21.86c0-5.334-2.406-8.054-7.322-8.054-3.347 0-5.752 1.046-7.217 2.824-1.568 1.987-2.195 5.02-2.195 9.31v17.466h-2.824V34.306h2.302l.627 4.394h.208c.94-1.57 2.197-2.72 3.766-3.66 1.673-.838 3.347-1.36 5.334-1.36 5.02 0 8.158 1.882 9.623 5.647h.105c1.046-1.883 2.406-3.138 4.184-4.184 1.777-1.046 3.66-1.464 5.96-1.464 3.452 0 6.066.94 7.74 2.718 1.778 1.883 2.51 4.812 2.51 8.786v20.71h-2.928v.208zM280.935 66.625c-4.602 0-8.158-1.465-10.878-4.288-2.51-2.824-3.87-6.8-3.87-11.924s1.255-9.1 3.765-12.133c2.406-3.033 5.857-4.602 10.146-4.602 3.765 0 6.59 1.36 8.89 3.87 2.197 2.614 3.243 6.17 3.243 10.668v2.3h-22.8c0 4.394 1.046 7.637 3.033 10.042 2.092 2.196 4.81 3.45 8.577 3.45 1.883 0 3.347-.103 4.81-.417 1.36-.208 3.034-.836 5.23-1.673v2.615c-1.882.837-3.45 1.36-5.02 1.674-1.57.315-3.243.42-5.125.42zm-.837-30.332c-3.033 0-5.543 1.046-7.32 3.033-1.884 2.092-2.93 4.916-3.244 8.682h19.664c0-3.66-.837-6.59-2.3-8.577-1.78-2.09-3.976-3.137-6.8-3.137zM320.68 66.102v-20.5c0-3.138-.732-5.543-2.09-6.902-1.36-1.465-3.453-2.197-6.277-2.197-3.765 0-6.59.94-8.367 2.824-1.778 1.987-2.615 5.02-2.615 9.31v17.466h-2.823V34.41h2.406l.523 4.394h.21c2.09-3.243 5.752-5.02 10.98-5.02 7.113 0 10.878 3.87 10.878 11.504v20.71c0 .104-2.824.104-2.824.104zM356.45 66.102h-2.93v-39.85h-13.91V23.43h30.75v2.718h-13.91v39.954zM386.363 66.625c-4.602 0-8.158-1.465-10.877-4.288-2.51-2.824-3.87-6.8-3.87-11.924s1.255-9.1 3.765-12.133c2.407-3.033 5.858-4.602 10.147-4.602 3.766 0 6.59 1.36 8.89 3.87 2.196 2.614 3.243 6.17 3.243 10.668v2.3h-22.906c0 4.394 1.047 7.637 3.033 10.042 2.092 2.196 4.81 3.45 8.576 3.45 1.883 0 3.348-.103 4.812-.417 1.36-.208 3.033-.836 5.23-1.673v2.615c-1.884.837-3.452 1.36-5.02 1.674-1.57.315-3.242.42-5.022.42zm-.836-30.332c-3.033 0-5.543 1.046-7.322 3.033-1.883 2.092-2.928 4.916-3.242 8.682h19.664c0-3.66-.838-6.59-2.3-8.577-1.78-2.09-4.08-3.137-6.8-3.137zM416.592 66.625c-4.498 0-8.055-1.465-10.67-4.288-2.51-2.824-3.87-6.8-3.87-11.924 0-5.23 1.36-9.413 3.976-12.237 2.615-2.93 6.38-4.393 10.982-4.393 2.72 0 5.438.522 7.844 1.464l-.836 2.51c-2.72-.94-5.125-1.36-7.113-1.36-3.87 0-6.8 1.256-8.89 3.558-2.093 2.405-2.93 5.856-2.93 10.46 0 4.287 1.046 7.634 2.93 10.04 2.09 2.405 4.81 3.66 8.368 3.66 2.822 0 5.543-.522 8.053-1.568v2.614c-1.883.942-4.498 1.465-7.844 1.465zM453.303 66.102v-20.5c0-3.138-.732-5.543-2.092-6.902-1.358-1.465-3.45-2.197-6.274-2.197-3.766 0-6.59.94-8.367 2.824-1.884 1.987-2.616 5.02-2.616 9.31v17.466h-2.824V20.71h2.824v14.433l-.104 4.08h.21c1.253-1.988 2.612-3.243 4.495-4.185 1.883-.837 4.08-1.36 6.695-1.36 7.11 0 10.877 3.87 10.877 11.506v20.71c0 .208-2.824.208-2.824.208zM502.46 66.102v-20.71c0-3.032-.626-5.333-1.882-6.692-1.254-1.465-3.033-2.197-5.543-2.197-3.242 0-5.648.94-7.217 2.615-1.568 1.883-2.3 4.602-2.3 8.472v18.617h-2.93v-21.86c0-5.334-2.405-8.054-7.32-8.054-3.35 0-5.753 1.046-7.218 2.824-1.568 1.987-2.197 5.02-2.197 9.31v17.466h-2.824V34.306h2.3l.63 4.394h.208c.94-1.57 2.195-2.72 3.766-3.66 1.674-.838 3.346-1.36 5.334-1.36 5.02 0 8.158 1.882 9.623 5.647h.105c1.047-1.883 2.406-3.138 4.184-4.184 1.778-1.046 3.66-1.464 5.962-1.464 3.45 0 6.066.94 7.738 2.718 1.78 1.883 2.512 4.812 2.512 8.786v20.71h-2.93v.208zM532.584 66.102l-.732-5.02h-.21c-1.673 2.092-3.24 3.45-4.915 4.288-1.674.836-3.66 1.255-5.96 1.255-3.034 0-5.546-.837-7.218-2.3-1.78-1.675-2.513-3.767-2.513-6.59 0-3.034 1.36-5.544 3.87-7.218 2.51-1.674 6.38-2.614 11.192-2.72l6.065-.21v-2.195c0-3.033-.63-5.334-1.883-6.8-1.256-1.567-3.14-2.3-5.963-2.3-2.93 0-6.067.837-9.1 2.406l-1.15-2.51c3.45-1.675 6.903-2.406 10.354-2.406s6.17.94 7.74 2.72c1.777 1.882 2.51 4.602 2.51 8.472V66.1h-2.197.107zm-11.818-2.092c3.346 0 6.066-.94 7.95-2.824 1.985-1.986 2.927-4.602 2.927-8.053v-3.138l-5.543.21c-4.498.208-7.635.94-9.518 2.09-1.988 1.256-2.824 2.93-2.824 5.544 0 1.986.627 3.556 1.883 4.602 1.255 1.045 3.034 1.568 5.126 1.568zM545.344 52.19l16.213-17.78h3.45l-12.446 13.598 13.6 18.198h-3.452l-12.03-16.002-5.228 4.706v11.296h-2.824V20.71h2.824v22.8l-.106 8.68zM581.848 66.625c-4.604 0-8.158-1.465-10.88-4.288-2.51-2.824-3.868-6.8-3.868-11.924s1.254-9.1 3.766-12.133c2.404-3.033 5.855-4.602 10.145-4.602 3.767 0 6.59 1.36 8.892 3.87 2.197 2.614 3.242 6.17 3.242 10.668v2.3h-22.906c0 4.394 1.047 7.637 3.033 10.042 2.093 2.3 4.813 3.45 8.58 3.45 1.88 0 3.345-.103 4.81-.417 1.36-.208 3.033-.836 5.23-1.673v2.615c-1.882.837-3.452 1.36-5.02 1.674-1.57.315-3.14.42-5.022.42zm-.838-30.332c-3.033 0-5.543 1.046-7.32 3.033-1.78 1.987-2.93 4.916-3.244 8.682h19.664c0-3.66-.836-6.59-2.3-8.577-1.78-2.09-3.976-3.137-6.8-3.137zM611.97 33.783c1.358 0 2.72.104 4.288.418l-.523 2.72c-1.36-.313-2.615-.522-4.078-.522-2.72 0-4.916 1.15-6.59 3.452-1.777 2.196-2.51 5.23-2.51 8.68V66h-2.824V34.306h2.404l.314 5.753h.21c1.36-2.302 2.615-3.976 4.184-4.917 1.256-.942 3.033-1.36 5.125-1.36zM640 57.84c0 2.823-1.15 5.02-3.242 6.59-2.197 1.567-5.23 2.195-9.205 2.195-4.287 0-7.635-.628-10.145-1.987V61.5c3.14 1.674 6.59 2.3 10.145 2.3 3.14 0 5.545-.52 7.113-1.567 1.674-1.046 2.406-2.406 2.406-4.185 0-1.673-.63-2.928-1.988-3.974-1.36-1.15-3.348-2.197-6.38-3.138-3.138-1.15-5.44-2.197-6.59-2.93-1.358-.836-2.196-1.777-2.823-2.72-.626-1.045-1.046-2.3-1.046-3.765 0-2.3 1.047-4.287 2.93-5.646 2.092-1.465 4.81-2.092 8.367-2.092 3.452 0 6.59.627 9.728 1.987l-1.15 2.613c-3.033-1.36-6.066-1.987-8.682-1.987-2.51 0-4.602.42-6.17 1.36-1.568.836-2.197 2.092-2.197 3.556 0 1.674.628 2.93 1.778 3.975 1.254 1.046 3.45 2.196 6.902 3.347 2.824 1.046 4.916 1.987 6.275 2.72 1.36.837 2.197 1.778 2.93 2.824.73 1.047 1.045 2.3 1.045 3.66z"/></g><path fill="#557EBF" d="M18.722 17.258h15.27v49.576h-15.27z"/><path fill="#27BAA2" d="M64.324 17.258H79.7v49.576H64.323z"/><path fill="#62C3A6" d="M64.43 66.73h15.374L56.898 24.683h-15.27z"/><path fill="#59C2EF" d="M33.993 66.73h-15.27l22.905-42.046h15.165z"/><path fill="#557EBF" d="M9.727 74.364V9.83h16.735V0H3.766C1.57 0 0 1.777 0 3.87v75.725c0 2.196 1.778 4.288 3.87 4.288h22.696V74.26H9.726v.104z"/><path fill="#27BAA2" d="M88.8 74.364V9.83H72.063V0H94.76c2.197 0 3.87 1.777 3.87 3.87v75.725c0 2.196-1.777 4.288-3.87 4.288H72.065V74.26H88.8v.104z"/></svg>