<svg xmlns="http://www.w3.org/2000/svg" width="545.539" height="223.236" viewBox="0 0 545.539 223.236"><g fill="#fff"><path d="M0 35.6h22.33l14.387 57.377h1.392L51.824 35.6h22.528L48.55 119.58v59.563H26.376V122.26L0 35.6zM73.35 97.463c0-8.2 2.648-14.73 7.95-19.592 5.3-4.862 12.423-7.292 21.37-7.292 8.148 0 14.823 2.564 20.026 7.69 5.203 5.124 7.804 11.722 7.804 19.79v54.692c0 9.062-2.554 16.172-7.654 21.33-5.1 5.158-12.125 7.737-21.07 7.737-8.613 0-15.506-2.663-20.673-7.985-5.17-5.322-7.753-12.482-7.753-21.48v-54.89zm20.26 56.875c0 2.916.698 5.164 2.102 6.754 1.4 1.588 3.4 2.38 6.006 2.38 2.67 0 4.788-.81 6.358-2.43 1.568-1.624 2.354-3.856 2.354-6.704v-57.67c0-2.314-.804-4.185-2.404-5.605s-3.703-2.135-6.308-2.135c-2.4 0-4.354.713-5.856 2.135s-2.252 3.29-2.252 5.605v57.67zM203.405 73.254v105.89h-19.687v-11.687c-3.63 4.307-7.404 7.59-11.328 9.842-3.924 2.247-7.735 3.376-11.427 3.376-4.55 0-7.983-1.574-10.292-4.73-2.308-3.15-3.46-7.88-3.46-14.185V73.255h19.688v81.172c0 2.512.412 4.326 1.236 5.45.824 1.122 2.16 1.685 4.008 1.685 1.452 0 3.28-.74 5.49-2.228 2.21-1.488 4.237-3.388 6.086-5.7V73.253h19.687z"/></g><g fill="#fff"><path d="M489.85 88.928c-3.133 0-5.38.96-6.746 2.88-1.368 1.92-2.05 5.098-2.05 9.528v9.188h17.395v-9.188c0-4.433-.686-7.61-2.05-9.53-1.37-1.917-3.552-2.878-6.55-2.878zM417.463 88.545c-1.402 0-2.79.35-4.16 1.042-1.37.696-2.723 1.77-4.06 3.226v64.46c1.603 1.72 3.155 2.962 4.66 3.72 1.505.763 3.09 1.142 4.763 1.142 2.404 0 4.176-.742 5.31-2.23 1.137-1.485 1.706-3.922 1.706-7.297V99.46c0-3.57-.7-6.283-2.104-8.135-1.404-1.85-3.445-2.78-6.115-2.78zM543.37 48.48c0-25.57-20.99-46.32-46.858-46.32C459.594.62 421.82-.064 383.29.008c-38.53-.07-76.304.613-113.225 2.154-25.865 0-46.857 20.75-46.857 46.32-1.553 20.254-2.227 40.508-2.166 60.762-.06 20.253.613 40.506 2.167 60.76 0 25.572 20.99 46.322 46.856 46.322 36.92 1.54 74.693 2.225 113.223 2.15 38.528.073 76.304-.61 113.222-2.15 25.867 0 46.857-20.75 46.857-46.322 1.552-20.254 2.226-40.507 2.165-60.76.06-20.254-.613-40.508-2.166-60.76zM291.294 177.425v1.53h-22.172V56.24h-22.937V33.878h68.046v22.364h-22.938v121.182zm78.863-104.36v105.89H350.47v-11.69c-3.63 4.308-7.4 7.59-11.328 9.842-3.924 2.248-7.733 3.377-11.426 3.377-4.55 0-7.98-1.573-10.29-4.727-2.31-3.154-3.464-7.883-3.464-14.188V71.535h19.688V152.707c0 2.512.41 4.328 1.235 5.45.824 1.12 2.16 1.685 4.008 1.685 1.45 0 3.28-.74 5.49-2.23 2.21-1.484 4.238-3.386 6.086-5.7V71.536h19.687v1.528zm75.785 25.206V157.015c0 7.528-1.545 13.29-4.627 17.286s-7.54 5.99-13.373 5.99c-3.85 0-7.28-.772-10.295-2.32-3.017-1.546-5.818-3.933-8.404-7.157v8.14h-19.88V33.878h19.88V80.09c2.652-3.23 5.47-5.688 8.45-7.37 2.984-1.682 6-2.524 9.054-2.524 6.23 0 10.988 2.266 14.27 6.786 3.283 4.52 4.927 11.11 4.927 19.76l-.002 1.528zm72.766 3.263v26.96h-37.655v18.443c0 5.566.648 9.43 1.947 11.582 1.3 2.156 3.514 3.232 6.65 3.232 3.264 0 5.547-.912 6.846-2.734 1.3-1.82 1.95-5.85 1.95-12.08V139.578h20.26V149.06c0 10.853-2.466 19.026-7.4 24.52-4.932 5.493-12.302 8.24-22.103 8.24-8.812 0-15.748-2.912-20.814-8.734-5.062-5.824-7.597-13.832-7.597-24.025v-49.055c0-9.19 2.78-16.68 8.346-22.467 5.56-5.784 12.745-8.68 21.557-8.68 9.006 0 15.926 2.68 20.762 8.037 4.83 5.357 7.25 13.062 7.25 23.11v1.528z"/></g></svg>